<svg width="25" height="25" viewBox="0 0 25 25" fill="none" xmlns="http://www.w3.org/2000/svg">
<rect x="0.75" y="0.94873" width="24" height="24" rx="12" fill="white"/>
<path d="M21.522 14.1038L20.154 9.99983C19.9556 9.40231 19.5738 8.88253 19.0631 8.51434C18.5524 8.14614 17.9386 7.94827 17.309 7.94883H8.191C7.56139 7.94827 6.94761 8.14614 6.43688 8.51434C5.92615 8.88253 5.54445 9.40231 5.346 9.99983L3.978 14.1038C3.6143 14.2562 3.30371 14.5125 3.08523 14.8408C2.86676 15.169 2.75013 15.5545 2.75 15.9488V18.9488C2.75 19.6868 3.154 20.3248 3.75 20.6718V21.9488C3.75 22.214 3.85536 22.4684 4.04289 22.6559C4.23043 22.8435 4.48478 22.9488 4.75 22.9488H5.75C6.01522 22.9488 6.26957 22.8435 6.45711 22.6559C6.64464 22.4684 6.75 22.214 6.75 21.9488V20.9488H18.75V21.9488C18.75 22.214 18.8554 22.4684 19.0429 22.6559C19.2304 22.8435 19.4848 22.9488 19.75 22.9488H20.75C21.0152 22.9488 21.2696 22.8435 21.4571 22.6559C21.6446 22.4684 21.75 22.214 21.75 21.9488V20.6718C22.0534 20.4978 22.3056 20.247 22.4811 19.9445C22.6567 19.642 22.7494 19.2986 22.75 18.9488V15.9488C22.75 15.1178 22.243 14.4068 21.522 14.1038ZM8.191 9.94883H17.308C17.518 9.94878 17.7226 10.0148 17.893 10.1376C18.0633 10.2604 18.1907 10.4336 18.257 10.6328L19.363 13.9488H6.137L7.242 10.6328C7.379 10.2238 7.761 9.94883 8.191 9.94883ZM6.25 18.9488C6.05295 18.9488 5.85785 18.9099 5.67582 18.8344C5.4938 18.759 5.32842 18.6484 5.18913 18.509C4.90783 18.2275 4.74987 17.8458 4.75 17.4478C4.75013 17.0499 4.90835 16.6683 5.18984 16.387C5.47133 16.1057 5.85304 15.9477 6.251 15.9478C6.64896 15.948 7.03056 16.1062 7.31187 16.3877C7.59317 16.6692 7.75113 17.0509 7.751 17.4488C7.75087 17.8468 7.59265 18.2284 7.31116 18.5097C7.02967 18.791 6.64796 18.949 6.25 18.9488ZM19.25 18.9488C18.852 18.9487 18.4704 18.7905 18.1891 18.509C17.9078 18.2275 17.7499 17.8458 17.75 17.4478C17.7501 17.0499 17.9083 16.6683 18.1898 16.387C18.4713 16.1057 18.853 15.9477 19.251 15.9478C19.649 15.948 20.0306 16.1062 20.3119 16.3877C20.5932 16.6692 20.7511 17.0509 20.751 17.4488C20.7509 17.8468 20.5927 18.2284 20.3112 18.5097C20.0297 18.791 19.648 18.949 19.25 18.9488ZM9.75 5.32683C9.755 4.23883 8.713 3.27583 8.363 2.98283C8.33118 2.95577 8.29077 2.94092 8.249 2.94092C8.20723 2.94092 8.16682 2.95577 8.135 2.98283C7.783 3.27383 6.745 4.21983 6.75 5.32583C6.75 6.22083 7.423 6.94883 8.25 6.94883C9.077 6.94883 9.75 6.22083 9.75 5.32683ZM14.25 5.32683C14.255 4.23883 13.213 3.27483 12.863 2.98283C12.8312 2.95577 12.7908 2.94092 12.749 2.94092C12.7072 2.94092 12.6668 2.95577 12.635 2.98283C12.282 3.27383 11.244 4.22083 11.249 5.32683C11.25 6.22083 11.923 6.94883 12.75 6.94883C13.577 6.94883 14.25 6.22083 14.25 5.32683ZM18.75 5.32683C18.755 4.23883 17.713 3.27483 17.363 2.98283C17.3312 2.95577 17.2908 2.94092 17.249 2.94092C17.2072 2.94092 17.1668 2.95577 17.135 2.98283C16.783 3.27383 15.745 4.21983 15.75 5.32583C15.75 6.22083 16.423 6.94883 17.25 6.94883C18.077 6.94883 18.75 6.22083 18.75 5.32683Z" fill="black"/>
</svg>
