<svg xmlns="http://www.w3.org/2000/svg" shape-rendering="geometricPrecision" text-rendering="geometricPrecision" image-rendering="optimizeQuality" fill-rule="evenodd" clip-rule="evenodd" viewBox="0 0 512 364.75"><path fill="#F19D37" fill-rule="nonzero" d="M249.877 58.327c10.752 0 20.486 4.358 27.531 11.405 7.046 7.046 11.404 16.779 11.404 27.53 0 10.751-4.358 20.485-11.404 27.53-7.045 7.046-16.779 11.404-27.531 11.404-10.751 0-20.484-4.358-27.53-11.404-7.046-7.045-11.404-16.779-11.404-27.53 0-10.751 4.358-20.484 11.404-27.53 7.046-7.047 16.779-11.405 27.53-11.405zM313.402 93.8a4.36 4.36 0 010 8.72h-11.173a4.36 4.36 0 110-8.72h11.173zM215.13 43.979a4.348 4.348 0 117.528-4.359l5.586 9.675a4.351 4.351 0 01-7.529 4.361l-5.585-9.677zm31.285-10.24a4.36 4.36 0 118.721 0v11.173a4.36 4.36 0 01-8.721 0V33.739zm32.238 6.796a4.34 4.34 0 117.528 4.326l-5.585 9.675a4.34 4.34 0 01-5.928 1.601 4.34 4.34 0 01-1.601-5.927l5.586-9.675zm24.507 21.978a4.348 4.348 0 015.943 1.585 4.348 4.348 0 01-1.583 5.943l-9.676 5.587a4.351 4.351 0 01-5.945-1.583 4.352 4.352 0 011.584-5.945l9.677-5.587zm-110.01 5.974a4.343 4.343 0 014.326-7.529l9.677 5.587a4.342 4.342 0 01-4.326 7.528l-9.677-5.586zm27.952 85.502a4.341 4.341 0 11-7.528-4.326l5.587-9.675a4.342 4.342 0 017.528 4.326l-5.587 9.675zm-24.506-21.978a4.35 4.35 0 01-4.361-7.528l9.677-5.588a4.35 4.35 0 014.36 7.529l-9.676 5.587zm-10.242-31.287a4.361 4.361 0 010-8.72h11.173a4.36 4.36 0 010 8.72h-11.173zm66.986 60.061a4.36 4.36 0 11-8.721 0v-11.173a4.36 4.36 0 018.721 0v11.173zm31.286-10.241a4.348 4.348 0 01-1.585 5.943 4.347 4.347 0 01-5.943-1.583l-5.587-9.676a4.35 4.35 0 017.528-4.361l5.587 9.677zm21.978-24.507a4.343 4.343 0 01-4.326 7.529l-9.675-5.587a4.342 4.342 0 014.326-7.529l9.675 5.587z"/><path fill="#B4DD87" d="M.011 213.31H512v151.439H.011z"/><path fill="#60A867" d="M431.334 318.561H512v46.189h-59.816l-20.85-46.189zm-431.323 0h78.966L58.033 364.75H.011v-46.189zm0-52.974H103l-14.241 31.4H.011v-31.4zm0-52.276h125.624l-12.852 30.702H.011v-30.702zm384.867 0H512v30.702H397.685l-12.807-30.702zm22.545 52.276H512v31.4h-90.4l-14.177-31.4z"/><path fill="#84BD6D" d="M346.234 364.75l-28.473-151.567h14.008l45.344 151.567h-30.879zm-187.886 0l28.473-151.567h-14.008L127.469 364.75h30.879zm101.179 0l.003-151.567h14.254l14.207 151.567h-28.464zm44.062 0l-15.772-151.567h14.255l29.983 151.567h-28.466zm-58.533 0l-.005-151.567H230.8L216.592 364.75h28.464zm-44.063 0l15.773-151.567h-14.257L172.527 364.75h28.466zm-88.515 0l45.385-151.567h-11.789L77.55 364.75h34.928zm279.626 0L346.72 213.183h11.788l68.524 151.567h-34.928z"/><path fill="#604748" fill-rule="nonzero" d="M427.251 227.144v-73.859h24.896v73.859h-24.896z"/><path fill="#56B15D" fill-rule="nonzero" d="M427.252 153.286h-49.41c-8.279.76-9.954-5.778-6.418-11.202l31.569-37.003-.913-.912h-16.888c-6.12.905-8.391-5.733-4.678-10.385l34.003-39.936h-9.927c-6.217.164-7.756-5.556-3.766-10.954l30.969-36.778c2.115-2.513 4.38-6.197 8.058-6.114 3.17.071 5.074 3.073 6.957 5.269l32.942 38.408c3.573 5.13.526 10.52-5.709 10.52h-8.895l33.762 39.572c4.049 4.003 1.982 10.425-2.67 11.306h-19.629l29.436 34.532 3.226 3.784c2.46 2.812 1.23 9.261-4.083 9.893H427.252z"/><path fill="#FCEC60" fill-rule="nonzero" d="M271.527 75.614c-5.541-5.541-13.194-8.968-21.65-8.968-8.454 0-16.108 3.427-21.647 8.968a30.51 30.51 0 00-8.967 21.648c0 8.454 3.425 16.108 8.967 21.648 5.539 5.54 13.193 8.968 21.647 8.968 8.456 0 16.109-3.428 21.65-8.968 5.539-5.54 8.966-13.194 8.966-21.648 0-8.454-3.427-16.109-8.966-21.648z"/><path fill="#604748" d="M51.975 234.714l43.445-.594-7.314-24.95 26.784-32.544-13.182-9.37-15.411 24.556-1.751-28.724-22.172-1.889-.791 24.492-10.839-19.822-14.724 3.9 23.021 28.836z"/><path fill="#56B15D" fill-rule="nonzero" d="M37.911 173.27l5.349-1.405c4.419-1.51 8.953-3.921 13.397-7.357a53.218 53.218 0 003.6 4.298c4.835 5.121 10.063 8.138 15.614 8.883 5.588.76 11.375-.79 17.277-4.773a42.734 42.734 0 003.857-2.94l5.98 5.081a25.618 25.618 0 004.065 2.227c4.723 2.042 9.342 2.193 13.582.717 4.15-1.435 12.923-4.416 15.944-8.655 3.183-4.486 5.619-10.422 6.971-17.467 8.305-4.598 13.442-10.119 15.872-15.743 1.842-4.23 2.149-8.521 1.14-12.528-1.015-3.969-3.312-7.627-6.711-10.652-5.034-4.49-17.582-7.615-26.823-8.294-1.294-2.382-2.654-9.669-4.055-11.735-6.854-10.091-14.607-15.848-22.867-17.972-8.332-2.144-17.015-.576-25.703 3.971a56.368 56.368 0 00-4.557 2.661c-13.062-7.454-26.146-9.287-37.054-7.148-6.844 1.345-17.929 6.784-22.586 10.85C5.479 89.412 2.151 97.265.74 103.366c-1.661 7.228-.615 15.484 4.055 24.083-4.713 11.412-5.027 21.403-2.355 29.155 1.799 5.173 4.908 9.362 8.929 12.298 4.022 2.937 13.992 4.629 19.404 4.871 2.308.1 4.69-.053 7.138-.503zm0 0z"/><path fill="#84C689" fill-rule="nonzero" d="M108.249 95.475c-4.252-6.093-9.058-9.637-14.195-11.029-5.443-1.475-11.147-.52-16.879 2.388a36.369 36.369 0 00-2.975 1.682l2.993 3.933.189.108a36.959 36.959 0 013.008-1.705c5.733-2.906 11.437-3.862 16.88-2.386 3.88 1.049 7.573 3.331 10.979 7.009zm-92.124 40.248c-1.743 7.82-.846 14.253 1.717 18.934 1.477 2.685 3.491 4.8 5.865 6.268a17.884 17.884 0 01-1.978-2.894c-2.579-4.716-3.472-11.205-1.681-19.1l-.102-.13-3.821-3.078zm12.156-47.134c-4.377 1.315-8.121 3.595-10.9 6.544-2.818 2.992-4.649 6.676-5.18 10.746-.622 4.822.589 10.14 4.184 15.452l-.048.161 3.595 3.341c-3.525-5.266-4.708-10.535-4.091-15.314.53-4.07 2.361-7.754 5.18-10.747 2.777-2.949 6.521-5.229 10.9-6.545 6.928-2.076 15.506-1.734 24.43 2.21-6.985-7.21-18.581-8.692-28.07-5.848z"/><path fill="#453435" fill-rule="nonzero" d="M67.933 196.874l-1.27 12.743-3.136-.179 1.271-12.743 3.135.179zm-1.338 16.114l-1.028 8.599-.196 1.624-1.563-.12-2.484-.187.387-3.247.915.069.834-6.969 3.135.238v-.007z"/></svg>