<svg xmlns="http://www.w3.org/2000/svg" viewBox="0 0 24 24" id="Organic-Plant-Grow-1--Streamline-Ultimate.svg" height="24" width="24"><desc>Organic Plant Grow 1 Streamline Icon: https://streamlinehq.com</desc><g><path d="M9.34 16.1a0.49 0.49 0 0 0 0.44 -0.1 0.52 0.52 0 0 0 0.21 -0.4 11 11 0 0 1 1 -4.14A0.48 0.48 0 0 0 11 11a9 9 0 0 0 -7.5 -4 0.5 0.5 0 0 0 -0.5 0.5 9 9 0 0 0 6.34 8.6Z" fill="#000000" stroke-width="1"></path><path d="M9 7.06a10.5 10.5 0 0 1 2.8 2.51 0.23 0.23 0 0 0 0.2 0.1 0.22 0.22 0 0 0 0.19 -0.1A10.91 10.91 0 0 1 15 7.05a0.5 0.5 0 0 0 0.23 -0.45A9.83 9.83 0 0 0 12.35 0.14a0.51 0.51 0 0 0 -0.71 0A9.82 9.82 0 0 0 8.77 6.6a0.52 0.52 0 0 0 0.23 0.46Z" fill="#000000" stroke-width="1"></path><path d="M11.5 16v2.25a0.75 0.75 0 0 0 1.5 0v-1.37a0.5 0.5 0 0 1 0.42 -0.49A9 9 0 0 0 21 7.5a0.5 0.5 0 0 0 -0.5 -0.5 9 9 0 0 0 -9 9Z" fill="#000000" stroke-width="1"></path><path d="M23 22a3.74 3.74 0 0 1 -2.9 -1.65 1.07 1.07 0 0 0 -1.55 0A3.73 3.73 0 0 1 15.67 22a3.76 3.76 0 0 1 -2.91 -1.65 1.06 1.06 0 0 0 -1.54 0A3.75 3.75 0 0 1 8.33 22a3.74 3.74 0 0 1 -2.9 -1.65 1.07 1.07 0 0 0 -1.55 0A3.73 3.73 0 0 1 1 22a1 1 0 0 0 0 2 5.17 5.17 0 0 0 3.35 -1.24 0.47 0.47 0 0 1 0.63 0 5.15 5.15 0 0 0 6.7 0 0.49 0.49 0 0 1 0.64 0 5.13 5.13 0 0 0 6.69 0 0.49 0.49 0 0 1 0.64 0A5.15 5.15 0 0 0 23 24a1 1 0 0 0 0 -2Z" fill="#000000" stroke-width="1"></path></g></svg>