<svg width="26" height="25" viewBox="0 0 26 25" fill="none" xmlns="http://www.w3.org/2000/svg">
<path d="M23.2141 10.4599H22.375V10.4167H13V14.5833H18.887C18.0282 17.0088 15.7204 18.75 13 18.75C9.54848 18.75 6.75004 15.9516 6.75004 12.5C6.75004 9.04843 9.54848 6.24999 13 6.24999C14.5933 6.24999 16.0427 6.85104 17.1464 7.83281L20.0927 4.88645C18.2323 3.1526 15.7438 2.08333 13 2.08333C7.24744 2.08333 2.58337 6.74739 2.58337 12.5C2.58337 18.2526 7.24744 22.9167 13 22.9167C18.7526 22.9167 23.4167 18.2526 23.4167 12.5C23.4167 11.8016 23.3448 11.1198 23.2141 10.4599Z" fill="#FFC107"/>
<path d="M3.78442 7.65156L7.20682 10.1615C8.13286 7.86874 10.3756 6.24999 13 6.24999C14.5933 6.24999 16.0428 6.85104 17.1464 7.83281L20.0928 4.88645C18.2323 3.1526 15.7438 2.08333 13 2.08333C8.99901 2.08333 5.52922 4.34218 3.78442 7.65156Z" fill="#FF3D00"/>
<path d="M13 22.9167C15.6906 22.9167 18.1354 21.887 19.9839 20.2125L16.7599 17.4844C15.6789 18.3065 14.3581 18.7511 13 18.75C10.2906 18.75 7.9901 17.0224 7.12344 14.6115L3.72656 17.2287C5.45052 20.6021 8.95156 22.9167 13 22.9167Z" fill="#4CAF50"/>
<path d="M23.2141 10.4599H22.375V10.4167H13V14.5833H18.887C18.4762 15.7377 17.7361 16.7465 16.7583 17.4849L16.7599 17.4839L19.9839 20.212C19.7557 20.4193 23.4167 17.7083 23.4167 12.5C23.4167 11.8016 23.3448 11.1198 23.2141 10.4599Z" fill="#1976D2"/>
</svg>
