<svg width="15" height="16" viewBox="0 0 15 16" fill="none" xmlns="http://www.w3.org/2000/svg">
<path d="M12.5 6.97223C12.5 9.73348 7.5 14.4722 7.5 14.4722C7.5 14.4722 2.5 9.73348 2.5 6.97223C2.5 5.64615 3.02678 4.37438 3.96447 3.4367C4.90215 2.49901 6.17392 1.97223 7.5 1.97223C8.82608 1.97223 10.0979 2.49901 11.0355 3.4367C11.9732 4.37438 12.5 5.64615 12.5 6.97223Z" fill="#234F68"/>
<path d="M7.5 7.47217C7.69891 7.47217 7.88968 7.39315 8.03033 7.2525C8.17098 7.11185 8.25 6.92108 8.25 6.72217C8.25 6.52326 8.17098 6.33249 8.03033 6.19184C7.88968 6.05119 7.69891 5.97217 7.5 5.97217C7.30109 5.97217 7.11032 6.05119 6.96967 6.19184C6.82902 6.33249 6.75 6.52326 6.75 6.72217C6.75 6.92108 6.82902 7.11185 6.96967 7.2525C7.11032 7.39315 7.30109 7.47217 7.5 7.47217Z" fill="white" stroke="white" stroke-width="1.25" stroke-linecap="round" stroke-linejoin="round"/>
</svg>
