<svg xmlns="http://www.w3.org/2000/svg" viewBox="0 0 24 24" id="Movies-Home--Streamline-Ultimate.svg" height="24" width="24"><desc>Movies Home Streamline Icon: https://streamlinehq.com</desc><g><path d="M23 15.29A1.29 1.29 0 0 0 21.71 14h-8.46a0.25 0.25 0 0 1 -0.25 -0.25v-1.5a0.25 0.25 0 0 1 0.25 -0.25h6.25a2 2 0 0 0 2 -2V2a2 2 0 0 0 -2 -2h-15a2 2 0 0 0 -2 2v8a2 2 0 0 0 2 2h6.25a0.25 0.25 0 0 1 0.25 0.25v1.5a0.25 0.25 0 0 1 -0.25 0.25H2.29A1.29 1.29 0 0 0 1 15.29v0.92a1.29 1.29 0 0 0 1.29 1.29h19.42A1.29 1.29 0 0 0 23 16.21ZM4.5 2.5A0.5 0.5 0 0 1 5 2h14a0.5 0.5 0 0 1 0.5 0.5v7a0.5 0.5 0 0 1 -0.5 0.5H5a0.5 0.5 0 0 1 -0.5 -0.5Z" fill="#000000" stroke-width="1"></path><path d="M7 18.5H4a0.49 0.49 0 0 0 -0.47 0.34L2 23.34a0.5 0.5 0 0 0 0.5 0.66H3a0.48 0.48 0 0 0 0.37 -0.17l4 -4.5a0.51 0.51 0 0 0 0.09 -0.54 0.52 0.52 0 0 0 -0.46 -0.29Z" fill="#000000" stroke-width="1"></path><path d="M21.47 18.84a0.5 0.5 0 0 0 -0.47 -0.34h-3a0.51 0.51 0 0 0 -0.46 0.29 0.49 0.49 0 0 0 0.09 0.54l4 4.5A0.48 0.48 0 0 0 22 24h0.5a0.5 0.5 0 0 0 0.47 -0.66Z" fill="#000000" stroke-width="1"></path></g></svg>