<svg xmlns="http://www.w3.org/2000/svg" viewBox="0 0 48 48" id="Park-Bench--Streamline-Ultimate.svg" height="48" width="48"><desc>Park Bench Streamline Icon: https://streamlinehq.com</desc><g><path d="M48 39.42a2.14 2.14 0 0 0 -2.14 -2.16h-2.16a1.06 1.06 0 0 1 -1.06 -1.06v-1.62a1.06 1.06 0 0 1 1.06 -1.06h1.62a1.08 1.08 0 0 0 1.06 -1.08v-4.3a1.06 1.06 0 0 0 -1.06 -1.06H23.86a1.08 1.08 0 0 0 -1.08 1.06v4.3a1.08 1.08 0 0 0 1.08 1.08h1.6a1.08 1.08 0 0 1 1.08 1.06v1.62a1.08 1.08 0 0 1 -1.08 1.06h-2.14a2.16 2.16 0 1 0 0 4.3H24a0.42 0.42 0 0 1 0.44 0.52l-0.56 3.42a2.14 2.14 0 1 0 4.24 0.7l0.6 -3.58a1.3 1.3 0 0 1 1.24 -1.06h9.24a1.32 1.32 0 0 1 1.26 1.06l0.6 3.58a2.14 2.14 0 1 0 4.22 -0.7L44.72 42a0.44 0.44 0 0 1 0.44 -0.52h0.7A2.14 2.14 0 0 0 48 39.42Zm-9.66 -3.22a1.08 1.08 0 0 1 -1.08 1.06H32a1.08 1.08 0 0 1 -1.08 -1.06v-1.62a1.08 1.08 0 0 1 1.08 -1.06h5.36a1.08 1.08 0 0 1 1.08 1.06Z" fill="#000000" stroke-width="1"></path><path d="M19.82 35.06a0.54 0.54 0 0 0 0.42 -0.24 0.56 0.56 0 0 0 0 -0.5 4 4 0 0 1 -0.46 -1.88v-4.3a4 4 0 0 1 1.12 -2.78 0.48 0.48 0 0 0 0 -0.64 0.54 0.54 0 0 1 0.42 -0.88 2.24 2.24 0 0 0 2 -1.22 2.2 2.2 0 0 0 -0.14 -2.32L18.42 13.48a0.56 0.56 0 0 1 0.46 -0.88h0.22a2.24 2.24 0 0 0 1.84 -3.54L15.24 0.9a2.34 2.34 0 0 0 -3.68 0L5.84 9.06a2.2 2.2 0 0 0 -0.14 2.32 2.24 2.24 0 0 0 2 1.22H8a0.52 0.52 0 0 1 0.5 0.3 0.56 0.56 0 0 1 0 0.58L3.6 20.3a2.24 2.24 0 0 0 1.84 3.54 0.54 0.54 0 0 1 0.48 0.3 0.56 0.56 0 0 1 0 0.58L0.48 31.42a2.28 2.28 0 0 0 -0.26 2.38 2.26 2.26 0 0 0 2 1.28H10a1.12 1.12 0 0 1 1.12 1.12v9.56a2.26 2.26 0 0 0 4.5 0V36.2a1.12 1.12 0 0 1 1.12 -1.12s1.92 0.02 3.08 -0.02Z" fill="#000000" stroke-width="1"></path></g></svg>