<svg width="15" height="16" viewBox="0 0 15 16" fill="none" xmlns="http://www.w3.org/2000/svg">
<path d="M10.111 2.5C9.999 2.5 9.676 2.647 9.676 2.647L6.354 4.327C5.911 4.502 5.736 5.208 6.002 5.561L6.972 6.969L3.002 8.998L5 10.498L7.502 8.998L10.002 10.498L11.004 9.496L8.004 5.496L10.561 3.966C11.089 3.7 11.004 3.262 11.004 2.996C11 2.786 10.644 2.5 10.111 2.5ZM12.252 5.5C12.0221 5.4998 11.7945 5.54489 11.582 5.63267C11.3695 5.72046 11.1765 5.84924 11.0138 6.01165C10.8511 6.17406 10.722 6.36692 10.6338 6.57923C10.5457 6.79153 10.5002 7.01912 10.5 7.249C10.4998 7.47888 10.5449 7.70655 10.6327 7.919C10.7205 8.13146 10.8492 8.32454 11.0116 8.48723C11.1741 8.64992 11.3669 8.77902 11.5792 8.86718C11.7915 8.95533 12.0191 9.0008 12.249 9.001C12.7133 9.0014 13.1587 8.81735 13.4872 8.48935C13.8158 8.16135 14.0006 7.71626 14.001 7.252C14.0014 6.78774 13.8174 6.34233 13.4894 6.01377C13.1614 5.68521 12.7163 5.5004 12.252 5.5ZM2.5 10.5L0 12V13.5L2.5 12L5 13.5L7.502 12L10.002 13.5L12 12L15 13.5V12L12 10.5L10.002 12L7.502 10.5L5 12L2.5 10.5Z" fill="black"/>
</svg>
