<svg xmlns="http://www.w3.org/2000/svg" viewBox="0 0 3152.08 4334.89" shape-rendering="geometricPrecision" text-rendering="geometricPrecision" image-rendering="optimizeQuality" fill-rule="evenodd" clip-rule="evenodd"><defs><style>.prefix__fil0{fill:#427d2a}</style></defs><g id="prefix__Layer_x0020_1"><path class="prefix__fil0" d="M527.04 1703.61L2228.24 0l923.84 963.82-1701.21 1703.61z"/><path d="M2070.06 449.44c67.76 72.65 191.81 75.61 265.5 3.66l365.53 381.35c-77.68 75.74-80.62 202.43.37 288.72L1608.91 2218.12c-74.12-79.3-198.18-82.25-271.87-10.32l-365.52-381.34c77.88-76.13 80.91-202.83 6.34-282.42l1092.2-1094.6z" fill="#87cc71"/><path class="prefix__fil0" d="M1368.92 1474.97c-76.28-265.48 72.6-543.9 332.55-621.93 259.94-78.05 532.47 73.9 608.75 339.38 76.3 265.47-72.59 543.91-332.54 621.94-259.96 78.03-532.48-73.91-608.76-339.39z"/><path d="M37.84 3245.49l366.78-339.66c48.61-41.55 121.66-38.15 165.67 8.54l23.09 24.52c16.53-24.07 36.63-49.37 60.01-75.73 2.87-3.13 172.51-719 198.78-829.04l78.5 72.12 293.3 269.69 702.19-623.23c46.91-41.52 94.19-67.1 139.03-79.8 54.23-15.39 105.08-11.95 148.27 5.31a209.206 209.206 0 0142.7 23.17c13.51 9.5 25.6 20.27 35.94 32a216.014 216.014 0 0127.11 39.88c7.46 13.93 13.43 29.12 17.59 44.9 11.87 45.01 9.13 95.97-12.26 147.66-17.78 43.19-48.58 86.7-94.63 127.24l-154.53 141.96 34.8 74.62 54.2 61.57 6.36 9.07c49.17 81.01 31.81 155.03-27.84 210.35-.36.33-.92.75-1.37 1.2-1.2 1.2-.22 1.26 1.12 3.35l42.14 66.51 54.11 61.46 6.37 9.08c56.66 93.26 23.48 169.6-48.62 232.57-.41.36-.86.78-1.28 1.12-1.28 1.17-3.52 2.37-.78 3.77l95.58 108.48 6.12 8.6c95.72 154.56-32.01 264.52-156.82 371.97-25.3 20.8-46.52 40.54-70.37 62.41l-138.44 126.96c-66.8 53.25-134.85 86.12-205.91 109.07-69.17 22.34-137.89 34.57-211.21 47.53l-48.62 8.63-43.31 8.48-2.51.31c24.68 46.44 16.92 105.83-23.12 143.5-117.47 110.13-245.84 237.49-367.42 340.3-48.58 41.52-121.69 38.14-165.66-8.54L31.92 3414.76c-44.42-47.95-42.33-123.79 5.34-168.72l.58-.55z" fill="#2d2222" fill-rule="nonzero"/><path id="prefix__cursor-hand_svg" d="M1131.24 2375.79l-243.02-223.42-173.51 725.56c-2.82 10.44-7.65 19.69-14.47 26.7-25.6 28.9-46.71 56.04-62.97 81.2l730.42 781.32c12.29-1.76 24.94-3.97 37.92-6.62 1.04.06 2.66-.36 3.75-.28 26.3-5.22 60.65-11.5 93.37-17.37 143.22-25.35 268.21-47.58 388.92-143.83l156.59-143.8c1.76-2.54 4.02-4.53 6.26-6.48 2.23-1.98 17.45-15.36 38.17-32.59 106.61-91.84 219.14-185.55 150.39-296.54l-54.92-62.36c-30.27 25.64-42.75 31.3-73.47 55.37-27.87 21.56-54.09 41.61-78.27 62.89-25.83 22.73-64.92 20.24-87.68-5.59-22.73-25.88-20.21-64.95 5.62-87.73 24.15-21.22 53.72-44.29 84.44-68.3 104.9-81.34 208.69-157.69 153.02-249.3l-54.43-61.8c-2.93-3.37-5.36-7.23-7.73-11.14-35.49 32.23-57.83 45.91-95.81 75.31-27.86 21.56-54.08 41.64-78.21 62.89-25.88 22.75-64.95 20.27-87.68-5.62-22.78-25.83-20.27-64.92 5.59-87.73 24.15-21.2 53.75-44.23 84.41-68.25 104.93-81.34 214.95-164.02 159.33-255.61l-54.4-61.79c-3.93-4.5-6.89-8.94-9.18-13.85l-171.09 149.3c-25.83 22.76-64.95 20.25-87.68-5.61-22.73-25.83-20.24-64.92 5.59-87.68l387.94-347.08c81.45-71.71 103.98-150.34 87.76-211.86-5.98-22.62-16.9-42.94-31.22-59.25-14.35-16.28-33.12-29.66-54.84-38.51-58.42-23.34-138.81-10.47-222.52 63.22l-754.3 669.49c-25.85 22.73-64.92 20.24-87.68-5.58-22.75-25.86-20.24-64.95 5.59-87.68z" fill="#e4b087" fill-rule="nonzero"/><path d="M72.66 3282.9l362.97-336.44c27.79-25.75 71.45-24.65 97.44 2.93l830.37 882.01c26 27.57 24.83 71.71-2.92 97.43L997.54 4265.3c-27.78 25.76-71.47 24.68-97.43-2.93L69.7 3380.34c-25.93-27.58-24.86-71.65 2.96-97.44z" fill="#43494c"/><path d="M853.47 3289.72l509.95 541.68c25.99 27.57 24.85 71.68-2.94 97.43l-362.94 336.48c-27.79 25.75-71.5 24.64-97.47-2.97L794 4149.66l59.47-859.94z" fill="#34393e"/><path d="M1689.07 1484.23l-26.57-69 80.01-80.01c-4.42-2.39-9.49-3.98-15.28-4.71-5.79-.72-11.73-.43-17.81.87-6.09 1.3-12.17 3.48-18.18 6.59-6.08 3.04-11.65 7.17-16.72 12.24l-59.74 59.73-26.57-69 229.02-229.02 26.57 69-55.31 55.32c3.83-.51 7.82-.58 11.94-.22 4.06.29 7.97.87 11.88 1.88 3.76 1.02 7.38 2.18 10.79 3.55 3.33 1.45 6.22 3.04 8.47 4.71l59.95-59.95 26.57 69-43.37 43.37c4.93 11.3 7.89 23.68 8.84 37.22 1.01 13.61.14 27.37-2.39 41.49-2.61 14.19-6.88 28.02-12.67 41.78a183.133 183.133 0 01-21.8 37.72l244.23 3.55-95.14 95.14-225.04-10.43-43.88-43.87 47.5-47.5c4.56-4.56 8.32-9.78 11.22-15.72 2.97-6.01 5.07-12.16 6.23-18.39 1.3-6.22 1.59-12.45 1.08-18.46-.58-6.08-2.02-11.44-4.49-16.22l-99.34 99.34z" fill="#fff" fill-rule="nonzero"/></g></svg>